PathFileType	4	(X/Y/Z)	 C:\Users\z3550257\Dropbox\University\GitHubClones\TheiaOpensim\ExampleData\P01_procesed_with_single_calib\C3D_data\jump_0_Theia.trc
DataRate	CameraRate	NumFrames	NumMarkers	Units	OrigDataRate	OrigDataStartFrame	OrigNumFrames
100	100	8	40	m	100	622	2485
Frame#	Time	PELVIS1			LHIP			LKNEE			LANK			LMTP			RHIP			RKNEE			RANK			RMTP			CVJ			TORSO			LSHO			LELB			LWRIST			RSHO			RELB			RWRIST			LCALC			RCALC			LTOE			RTOE			LHAND			RHAND			HEAD_CENTRE			TORSO_LOW			LTHI			RTHI			LSHA			RSHA			L_LCALC			R_LCALC			LUA			RUA			LFRM			RFRM			HEAD_L			HEAD_R			TORSO_L			TORSO_R			PELVIS2			
		X1	Y1	Z1	X2	Y2	Z2	X3	Y3	Z3	X4	Y4	Z4	X5	Y5	Z5	X6	Y6	Z6	X7	Y7	Z7	X8	Y8	Z8	X9	Y9	Z9	X10	Y10	Z10	X11	Y11	Z11	X12	Y12	Z12	X13	Y13	Z13	X14	Y14	Z14	X15	Y15	Z15	X16	Y16	Z16	X17	Y17	Z17	X18	Y18	Z18	X19	Y19	Z19	X20	Y20	Z20	X21	Y21	Z21	X22	Y22	Z22	X23	Y23	Z23	X24	Y24	Z24	X25	Y25	Z25	X26	Y26	Z26	X27	Y27	Z27	X28	Y28	Z28	X29	Y29	Z29	X30	Y30	Z30	X31	Y31	Z31	X32	Y32	Z32	X33	Y33	Z33	X34	Y34	Z34	X35	Y35	Z35	X36	Y36	Z36	X37	Y37	Z37	X38	Y38	Z38	X39	Y39	Z39	X40	Y40	Z40	
622	6.2200	0.315726	0.971595	-0.180320	0.325644	0.879805	-0.271851	0.312078	0.488701	-0.315276	0.277106	0.094607	-0.352786	0.424766	0.034823	-0.379976	0.323485	0.878683	-0.089717	0.305859	0.490309	-0.039730	0.264626	0.095110	0.003869	0.413120	0.034725	0.018516	0.309912	1.592651	-0.192103	0.336953	1.492285	-0.189195	0.327783	1.383964	-0.350875	0.320717	1.081141	-0.409007	0.398167	0.834966	-0.426765	0.320777	1.399729	-0.022687	0.281729	1.102458	0.051055	0.352247	0.865536	0.131337	0.223060	0.024606	-0.342745	0.209619	0.024832	-0.005382	0.473581	0.034083	-0.388865	0.462769	0.035048	0.024270	0.420843	0.768849	-0.433362	0.370497	0.804341	0.158428	0.344077	1.628061	-0.192290	0.346206	1.237999	-0.182396	0.305905	0.689738	-0.367292	0.303403	0.690483	0.009287	0.283307	0.297421	-0.397791	0.275557	0.300620	0.045851	0.262736	0.042834	-0.389016	0.252097	0.043394	0.040861	0.362333	1.243178	-0.364485	0.341943	1.262074	0.019771	0.387483	0.974899	-0.393050	0.352769	1.003188	0.084213	0.264951	1.708611	-0.268141	0.260850	1.708325	-0.118196	0.340625	1.488411	-0.339099	0.333281	1.496158	-0.039290	0.324565	0.879244	-0.180784	
623	6.2300	0.315685	0.971590	-0.180454	0.325621	0.879857	-0.272041	0.312123	0.488714	-0.315138	0.277225	0.094621	-0.352713	0.424867	0.034797	-0.379920	0.323490	0.878627	-0.089907	0.305863	0.490270	-0.039794	0.264721	0.095073	0.003910	0.413195	0.034604	0.018411	0.309794	1.592645	-0.192065	0.336702	1.492321	-0.189292	0.327680	1.384156	-0.351014	0.319919	1.081346	-0.409116	0.397549	0.835197	-0.426492	0.320635	1.399648	-0.022820	0.281177	1.102045	0.049351	0.351913	0.864507	0.127600	0.223136	0.024633	-0.342803	0.209680	0.024832	-0.005416	0.473690	0.034086	-0.388787	0.462848	0.034926	0.024147	0.420291	0.769085	-0.432923	0.370036	0.803119	0.154322	0.343922	1.628090	-0.192249	0.346025	1.238035	-0.182596	0.305842	0.689708	-0.367310	0.303312	0.690463	0.009143	0.283331	0.297447	-0.397675	0.275524	0.300603	0.045825	0.262845	0.042909	-0.389028	0.252185	0.043311	0.040835	0.361899	1.243285	-0.364582	0.341674	1.261656	0.018596	0.386644	0.975128	-0.392842	0.352310	1.002631	0.081848	0.264692	1.708586	-0.268049	0.260635	1.708244	-0.118103	0.340454	1.488511	-0.339196	0.332951	1.496130	-0.039387	0.324555	0.879242	-0.180974	
624	6.2400	0.315650	0.971583	-0.180610	0.325625	0.879906	-0.272247	0.312163	0.488727	-0.315035	0.277318	0.094638	-0.352708	0.424900	0.034644	-0.379882	0.323519	0.878577	-0.090114	0.305896	0.490241	-0.039830	0.264820	0.095044	0.003936	0.413260	0.034458	0.018296	0.309673	1.592652	-0.191974	0.336515	1.492353	-0.189350	0.327599	1.384361	-0.351221	0.318978	1.081569	-0.409295	0.396842	0.835463	-0.426247	0.320557	1.399549	-0.023004	0.280722	1.101685	0.047889	0.351739	0.863562	0.124072	0.223128	0.024712	-0.342913	0.209729	0.024852	-0.005467	0.473736	0.034137	-0.388730	0.462915	0.034845	0.024019	0.419680	0.769376	-0.432606	0.369801	0.801971	0.150328	0.343770	1.628126	-0.192185	0.345857	1.238064	-0.182789	0.305789	0.689681	-0.367354	0.303219	0.690459	0.009001	0.283339	0.297481	-0.397610	0.275480	0.300592	0.045802	0.262893	0.042987	-0.389091	0.252263	0.043239	0.040793	0.361414	1.243390	-0.364765	0.341498	1.261243	0.017402	0.385584	0.975354	-0.392551	0.351971	1.002070	0.079469	0.264415	1.708550	-0.267931	0.260469	1.708213	-0.117983	0.340299	1.488624	-0.339255	0.332732	1.496082	-0.039444	0.324572	0.879241	-0.181181	
625	6.2500	0.315630	0.971577	-0.180764	0.325645	0.879942	-0.272439	0.312170	0.488738	-0.314998	0.277356	0.094658	-0.352789	0.424859	0.034419	-0.379860	0.323568	0.878538	-0.090307	0.305971	0.490225	-0.039840	0.264912	0.095030	0.003956	0.413311	0.034311	0.018188	0.309533	1.592667	-0.191848	0.336385	1.492384	-0.189338	0.327512	1.384575	-0.351462	0.317934	1.081812	-0.409543	0.396070	0.835757	-0.425998	0.320541	1.399460	-0.023225	0.280386	1.101402	0.046687	0.351669	0.862689	0.120732	0.223036	0.024821	-0.343070	0.209764	0.024892	-0.005519	0.473712	0.034233	-0.388683	0.462968	0.034816	0.023902	0.419028	0.769713	-0.432359	0.369705	0.800856	0.146387	0.343607	1.628162	-0.192100	0.345715	1.238090	-0.182959	0.305749	0.689662	-0.367427	0.303157	0.690469	0.008878	0.283321	0.297517	-0.397624	0.275454	0.300591	0.045788	0.262872	0.043045	-0.389205	0.252328	0.043187	0.040751	0.360870	1.243492	-0.364981	0.341424	1.260860	0.016192	0.384357	0.975583	-0.392187	0.351738	1.001500	0.077067	0.264140	1.708507	-0.267812	0.260315	1.708225	-0.117862	0.340158	1.488762	-0.339246	0.332611	1.496006	-0.039429	0.324607	0.879240	-0.181373	
626	6.2600	0.315622	0.971569	-0.180900	0.325666	0.879957	-0.272595	0.312128	0.488743	-0.315035	0.277320	0.094675	-0.352958	0.424758	0.034191	-0.379844	0.323625	0.878517	-0.090463	0.306084	0.490222	-0.039833	0.264993	0.095031	0.003972	0.413352	0.034188	0.018106	0.309367	1.592680	-0.191713	0.336288	1.492412	-0.189253	0.327400	1.384788	-0.351699	0.316831	1.082071	-0.409862	0.395281	0.836076	-0.425709	0.320575	1.399407	-0.023447	0.280149	1.101215	0.045744	0.351614	0.861883	0.117569	0.222879	0.024926	-0.343263	0.209789	0.024943	-0.005553	0.473630	0.034353	-0.388634	0.463010	0.034838	0.023814	0.418369	0.770084	-0.432127	0.369622	0.799757	0.142495	0.343427	1.628189	-0.192005	0.345600	1.238113	-0.183094	0.305729	0.689652	-0.367524	0.303144	0.690488	0.008786	0.283277	0.297550	-0.397725	0.275464	0.300600	0.045786	0.262793	0.043067	-0.389365	0.252380	0.043163	0.040722	0.360267	1.243585	-0.365180	0.341433	1.260529	0.014995	0.383052	0.975834	-0.391797	0.351564	1.000936	0.074688	0.263886	1.708456	-0.267721	0.260142	1.708261	-0.117769	0.340026	1.488918	-0.339165	0.332550	1.495906	-0.039340	0.324646	0.879237	-0.181529	
627	6.2700	0.315611	0.971557	-0.181011	0.325673	0.879946	-0.272705	0.312040	0.488733	-0.315126	0.277214	0.094681	-0.353197	0.424630	0.034025	-0.379823	0.323665	0.878510	-0.090572	0.306219	0.490227	-0.039815	0.265058	0.095043	0.003984	0.413384	0.034108	0.018064	0.309179	1.592682	-0.191597	0.336198	1.492432	-0.189122	0.327263	1.384985	-0.351907	0.315699	1.082338	-0.410259	0.394528	0.836419	-0.425353	0.320652	1.399411	-0.023627	0.279954	1.101132	0.045035	0.351480	0.861144	0.114573	0.222695	0.024995	-0.343477	0.209811	0.024991	-0.005560	0.473518	0.034465	-0.388568	0.463042	0.034895	0.023769	0.417741	0.770481	-0.431864	0.369427	0.798683	0.138690	0.343231	1.628199	-0.191913	0.345506	1.238127	-0.183191	0.305739	0.689641	-0.367634	0.303178	0.690510	0.008731	0.283226	0.297569	-0.397897	0.275515	0.300614	0.045794	0.262682	0.043038	-0.389553	0.252422	0.043167	0.040714	0.359610	1.243656	-0.365331	0.341488	1.260266	0.013851	0.381767	0.976133	-0.391447	0.351375	1.000411	0.072406	0.263669	1.708397	-0.267680	0.259931	1.708301	-0.117727	0.339894	1.489070	-0.339039	0.332501	1.495793	-0.039206	0.324669	0.879228	-0.181639	
628	6.2800	0.315574	0.971537	-0.181098	0.325651	0.879907	-0.272773	0.311925	0.488702	-0.315236	0.277062	0.094669	-0.353469	0.424511	0.033961	-0.379795	0.323661	0.878512	-0.090639	0.306353	0.490235	-0.039791	0.265106	0.095057	0.003987	0.413414	0.034076	0.018071	0.308981	1.592670	-0.191519	0.336096	1.492436	-0.188997	0.327123	1.385155	-0.352076	0.314551	1.082607	-0.410739	0.393855	0.836790	-0.424926	0.320764	1.399485	-0.023722	0.279727	1.101158	0.044523	0.351193	0.860488	0.111735	0.222529	0.025002	-0.343687	0.209837	0.025022	-0.005542	0.473413	0.034533	-0.388484	0.463072	0.034961	0.023776	0.417178	0.770903	-0.431552	0.369044	0.797673	0.135026	0.343030	1.628190	-0.191839	0.345419	1.238127	-0.183253	0.305791	0.689616	-0.367744	0.303241	0.690528	0.008708	0.283198	0.297567	-0.398105	0.275602	0.300624	0.045806	0.262576	0.042959	-0.389746	0.252456	0.043192	0.040727	0.358918	1.243694	-0.365429	0.341542	1.260076	0.012798	0.380568	0.976498	-0.391197	0.351098	0.999969	0.070298	0.263503	1.708336	-0.267696	0.259684	1.708330	-0.117746	0.339756	1.489183	-0.338916	0.332435	1.495688	-0.039077	0.324656	0.879210	-0.181706	
629	6.2900	0.315483	0.971506	-0.181169	0.325593	0.879847	-0.272811	0.311810	0.488650	-0.315332	0.276906	0.094637	-0.353727	0.424439	0.034007	-0.379762	0.323584	0.878515	-0.090677	0.306459	0.490238	-0.039768	0.265140	0.095064	0.003979	0.413444	0.034089	0.018124	0.308791	1.592653	-0.191490	0.335977	1.492420	-0.188930	0.327014	1.385291	-0.352215	0.313386	1.082873	-0.411306	0.393283	0.837193	-0.424451	0.320903	1.399637	-0.023699	0.279393	1.101292	0.044171	0.350726	0.859939	0.109045	0.222425	0.024941	-0.343865	0.209870	0.025024	-0.005510	0.473351	0.034531	-0.388392	0.463100	0.035006	0.023836	0.416704	0.771353	-0.431198	0.368483	0.796783	0.131542	0.342840	1.628173	-0.191790	0.345326	1.238110	-0.183288	0.305886	0.689570	-0.367841	0.303300	0.690536	0.008707	0.283221	0.297542	-0.398307	0.275707	0.300623	0.045820	0.262508	0.042840	-0.389916	0.252483	0.043224	0.040752	0.358212	1.243691	-0.365500	0.341548	1.259963	0.011870	0.379479	0.976936	-0.391080	0.350681	0.999652	0.068415	0.263390	1.708287	-0.267762	0.259418	1.708343	-0.117816	0.339609	1.489228	-0.338851	0.332345	1.495612	-0.039008	0.324589	0.879181	-0.181744	
